<svg xmlns="http://www.w3.org/2000/svg" height="800" width="1200" viewBox="-8.265855 -5.2235 71.63741 31.341"><path fill="#fff" d="M2.836.5431L0 7.5768h1.8563l.526-1.3928h3.1454l.5775 1.3928h1.8873L4.8676.5431zm1.0417 1.681l1.1346 2.733H2.8466zM14.8482.5432h1.5261V7.577H14.621V3.1834L12.7238 5.39h-.2682L10.558 3.1834v4.3935H8.8047V.5432h1.5265l2.2581 2.6092zm4.6179 5.7448h1.1448c1.7632 0 2.2895-1.1967 2.2895-2.2279 0-1.2068-.6498-2.2274-2.3103-2.2274h-1.124zM20.817.5432c2.5682 0 3.8876 1.5984 3.8876 3.527 0 2.0211-1.278 3.5067-4.0834 3.5067h-2.9083V.5433zm11.003 1.668h-3.627L25.9822 0h8.0482v8.0486L31.82 5.8378zm-3.6295 3.629V2.6543l-2.276 2.2758v3.1863H29.1l2.2758-2.2762zm-5.8587 7.7318h6.3609l-6.361 5.4777v1.8429h9.1462V19.064h-6.36l6.36-5.4776v-1.8432h-9.1461zm-6.7362 1.8003l-2.6187-3.629h-2.2606l3.956 5.4888v3.6605h1.8282V17.232l3.9754-5.4888h-2.261zm18.4377-1.7999H43.18v-1.8302h-9.1468zm0 1.8306v5.491H43.18v-1.8302h-7.3166v-1.8302H43.18V15.403zM1.8304 17.2332h3.3771l2.1135 3.6604h2.1135L7.321 17.2332h.0004c1.011 0 1.8305-.8195 1.8305-1.8306v-1.8302c0-1.0107-.8195-1.8302-1.8305-1.8302H.0002v1.8302h7.1913c.072 0 .1299.0582.1299.1298v1.5706a.1295.1295 0 01-.1299.1298H.0002v5.491h1.8302zm51.4469-5.4882v6.3606l-5.478-6.3606h-1.8425v9.1462h1.8285v-6.36l5.4775 6.36h1.843V11.745z"/></svg>