<?xml version="1.0" encoding="UTF-8" standalone="no"?>
<!-- Created with Inkscape (http://www.inkscape.org/) -->
<svg
   xmlns:svg="http://www.w3.org/2000/svg"
   xmlns="http://www.w3.org/2000/svg"
   version="1.0"
   width="921.25983"
   height="425.19684"
   id="svg2226">
  <defs
     id="defs2228">
  
  
 
   
   
   
   
   
   
   
   
   
  </defs>
  <g
     id="layer1">
    <path
       d="M 17.71707,90.483658 C 17.71707,52.739644 48.474038,22.137164 86.394863,22.137164 L 834.86532,22.137164 C 872.80244,22.137164 903.54276,52.739644 903.54276,90.483658 L 903.54276,334.72948 C 903.54276,372.45153 872.80244,403.05967 834.86532,403.05967 L 86.394863,403.05967 C 48.474038,403.05967 17.71707,372.45153 17.71707,334.72948 L 17.71707,90.483658 L 17.71707,90.483658 z "
       style="fill:#000268;fill-opacity:1;fill-rule:evenodd"
       id="_92653320" />
    <path
       d="M 45.904077,92.822241 L 45.904077,332.41322 C 45.904077,355.99499 65.128998,375.12105 88.843289,375.12105 L 480.97399,375.12105 L 480.97399,50.114407 L 88.843289,50.114407 C 65.128998,50.114407 45.904077,69.240116 45.904077,92.822241 L 45.904077,92.822241 z M 582.29343,211.42098 C 582.29343,226.67527 574.74867,237.15921 562.25745,237.15921 C 551.22217,237.15921 542.02304,226.67527 542.02304,212.70578 C 542.02304,198.36708 550.11347,187.70669 562.25745,187.70669 C 575.13489,187.70669 582.29343,198.73665 582.29343,211.42098 z M 508.95017,298.90983 L 542.02304,298.90983 L 542.02304,246.88736 L 542.39261,246.88736 C 548.65753,258.28688 561.1654,262.51121 572.74139,262.51121 C 601.22603,262.51121 616.48032,238.99003 616.48032,210.68184 C 616.48032,187.53023 601.96517,162.33236 575.4878,162.33236 C 560.42662,162.33236 546.45714,168.40452 539.82265,181.82763 L 539.45308,181.82763 L 539.45308,164.55507 L 508.95017,164.55507 L 508.95017,298.90983 z M 661.65288,229.97869 C 661.65288,220.79621 670.46579,217.31633 681.69418,217.31633 C 686.65233,217.31633 691.43934,217.66393 695.66367,217.86236 C 695.66367,229.06877 687.76068,240.46795 675.2528,240.46795 C 667.53194,240.46795 661.65288,236.61318 661.65288,229.97869 z M 728.36733,260.31082 C 726.90571,252.78306 726.53615,245.23299 726.53615,237.70523 L 726.53615,202.04539 C 726.53615,172.82196 705.40847,162.33236 680.9554,162.33236 C 666.80946,162.33236 654.49469,164.35629 642.7256,169.1433 L 643.28828,191.5781 C 652.44843,186.42153 663.13079,184.39759 673.79119,184.39759 C 685.72008,184.39759 695.46524,187.8998 695.66367,200.9537 C 691.43934,200.21456 685.54363,199.65188 680.21627,199.65188 C 662.58512,199.65188 630.7804,203.15409 630.7804,232.3722 C 630.7804,253.15263 647.68375,262.51121 666.61635,262.51121 C 680.21627,262.51121 689.41505,257.2005 696.94847,245.23299 L 697.31804,245.23299 C 697.31804,250.2131 697.85839,255.15424 698.05717,260.31082 L 728.36733,260.31082 z M 743.2517,298.90983 C 750.05697,300.3881 756.85162,301.13255 763.83335,301.13255 C 794.16583,301.13255 801.32402,277.78216 810.69961,253.6983 L 845.81874,164.55507 L 812.72355,164.55507 L 793.05713,227.04484 L 792.68756,227.04484 L 772.10024,164.55507 L 736.45741,164.55507 L 775.23288,262.51121 C 772.83937,270.97121 766.59642,275.75822 758.50067,275.75822 C 753.89012,275.75822 749.86422,275.19554 745.44678,273.73428 L 743.2517,298.90983 z "
       style="fill:white;fill-opacity:1;fill-rule:evenodd"
       id="_92186184" />
    <path
       d="M 126.70352,211.61409 C 126.70352,198.56019 133.1449,187.70669 145.45967,187.70669 C 160.34474,187.70669 166.5877,199.65188 166.5877,210.31228 C 166.5877,225.0209 157.21211,234.94216 145.45967,234.94216 C 135.53841,234.94216 126.70352,226.49881 126.70352,211.61409 z M 198.57419,164.55507 L 168.61163,164.55507 L 168.61163,181.82763 L 168.26403,181.82763 C 161.25998,170.05889 149.85514,162.33236 135.71486,162.33236 C 105.94506,162.33236 92.52195,183.67511 92.52195,212.15976 C 92.52195,240.46795 108.88459,260.31082 135.14687,260.31082 C 148.39919,260.31082 159.42915,255.15424 167.32648,243.94818 L 167.69604,243.94818 L 167.69604,249.1044 C 167.69604,267.84424 157.40522,276.85027 138.30148,276.85027 C 124.50845,276.85027 116.04313,273.91074 105.94506,268.95295 L 104.29069,295.06039 C 111.99526,297.82346 125.04915,301.13255 140.87144,301.13255 C 179.47045,301.13255 198.57419,288.44255 198.57419,249.1044 L 198.57419,164.55507 z M 254.49006,124.6709 L 221.40053,124.6709 L 221.40053,148.93122 L 254.49006,148.93122 L 254.49006,124.6709 z M 221.41718,260.31082 L 254.49006,260.31082 L 254.49006,164.55507 L 221.41718,164.55507 L 221.41718,260.31082 z M 346.61179,163.44106 C 343.30269,162.90035 339.25482,162.33236 335.40537,162.33236 C 321.06667,162.33236 312.79978,170.05889 307.09718,182.1972 L 306.72761,182.1972 L 306.72761,164.55507 L 276.5886,164.55507 L 276.5886,260.31082 L 309.66714,260.31082 L 309.66714,219.88629 C 309.66714,201.13015 318.32025,189.92373 333.751,189.92373 C 337.62242,189.92373 341.27875,189.92373 344.95742,191.01011 L 346.61179,163.44106 z M 403.57612,239.3596 C 388.32182,239.3596 382.07887,226.67527 382.07887,212.52932 C 382.07887,198.19062 388.32182,185.50629 403.57612,185.50629 C 418.84706,185.50629 425.09533,198.19062 425.09533,212.52932 C 425.09533,226.67527 418.84706,239.3596 403.57612,239.3596 z M 403.57612,262.51121 C 435.19304,262.51121 459.2769,244.14661 459.2769,212.52932 C 459.2769,180.71929 435.19304,162.33236 403.57612,162.33236 C 371.9645,162.33236 347.8973,180.71929 347.8973,212.52932 C 347.8973,244.14661 371.9645,262.51121 403.57612,262.51121 z "
       style="fill:#ff0007;fill-opacity:1;fill-rule:evenodd"
       id="_47303032" />
  </g>
</svg>
